<svg xmlns="http://www.w3.org/2000/svg" width="121.377" height="121.377" viewBox="0 0 121.377 121.377">
  <g id="Aire_acondicionado" data-name="Aire acondicionado" transform="translate(-228.725 -3402)">
    <g id="Capa_1" data-name="Capa 1" transform="translate(228.725 3402)">
      <ellipse id="Ellipse_1" data-name="Ellipse 1" cx="60.689" cy="60.689" rx="60.689" ry="60.689" fill="#fff"/>
      <path id="Path_4" data-name="Path 4" d="M102.113,73.99a2.486,2.486,0,0,0-2.872-2.038l-13.7,2.316-.162.046L73.8,67.6,85.188,60.9a2.486,2.486,0,0,0,.988.317L99.017,62.5h.247a2.494,2.494,0,0,0,.247-4.972l-7.366-.772,7.721-4.563A2.494,2.494,0,1,0,97.341,47.9l-7.613,4.478,2.2-6.339a2.494,2.494,0,0,0-4.71-1.629L83.211,56.185a.275.275,0,0,1-.039.17L71.6,63.181l.116-13.126h0L80.6,39.785A2.5,2.5,0,0,0,76.8,36.535L71.776,42.38l.085-9.96A2.494,2.494,0,0,0,69.39,29.91h0A2.494,2.494,0,0,0,66.9,32.381L66.757,42.9l-5.5-6.362a2.494,2.494,0,0,0-3.768,3.251L66.4,50.055a2.487,2.487,0,0,0,.324.3l-.116,13.126L54.342,56.363l-3.505-12.23a2.494,2.494,0,1,0-4.787,1.374l2.077,7.25-8.493-4.918a2.494,2.494,0,0,0-2.5,4.308l8.987,5.212-8.571,1.15a2.494,2.494,0,0,0,.332,4.957h.332l13.45-1.83a2.471,2.471,0,0,0,1.1-.44l11.165,6.47-11.752,6.91a2.525,2.525,0,0,0-.486-.1l-13.5-1.359a2.494,2.494,0,0,0-.5,4.957l7.3.772L38.066,82.87a2.494,2.494,0,1,0,2.525,4.293l8.123-4.772-2.116,8.4A2.486,2.486,0,0,0,48.4,93.818a2.525,2.525,0,0,0,.61.077,2.494,2.494,0,0,0,2.417-1.884l3.312-13.126,11.79-6.949-.124,13.9a2.51,2.51,0,0,0-.324.317L57.392,96.575a2.5,2.5,0,0,0,3.861,3.189l5.127-6.177-.116,8.972a2.494,2.494,0,0,0,2.471,2.509h0A2.494,2.494,0,0,0,71.22,102.6l.085-9.265,5.4,6.069a2.494,2.494,0,1,0,3.714-3.32L71.39,86h0l.124-13.9L83.35,78.97,86.9,92.011a2.494,2.494,0,0,0,4.81-1.313l-2.231-8.215,8.069,4.679a2.494,2.494,0,0,0,2.5-4.308l-7.961-4.633,7.984-1.359A2.494,2.494,0,0,0,102.113,73.99Z" transform="translate(-8.076 -6.816)" fill="#f3b842"/>
    </g>
  </g>
</svg>
