<svg xmlns="http://www.w3.org/2000/svg" width="121.377" height="121.377" viewBox="0 0 121.377 121.377">
  <g id="Albañilería" transform="translate(-455.828 -3653.435)">
    <g id="Capa_1" data-name="Capa 1" transform="translate(455.828 3653.435)">
      <ellipse id="Ellipse_2" data-name="Ellipse 2" cx="60.689" cy="60.689" rx="60.689" ry="60.689" fill="#fff"/>
      <path id="Path_5" data-name="Path 5" d="M105.822,75.526a1.923,1.923,0,0,0-1.035-1.544l-18.4-9.265a1.93,1.93,0,0,0-.857-.208,1.953,1.953,0,0,0,.587-1.081,1.907,1.907,0,0,0,.077-.517V49.074a2.548,2.548,0,0,0-1.1-2L66.722,37.808a1.93,1.93,0,0,0-1.745,0L47.218,46.819a1.923,1.923,0,0,0-1.05,1.66h0V62.895h0a1.93,1.93,0,0,0,.479,1.266L29.56,72.816a1.923,1.923,0,0,0-1.05,1.66h0V88.869h0a1.923,1.923,0,0,0,1.027,1.637l17.89,9.265a1.93,1.93,0,0,0,1.745,0l17.4-8.578a1.861,1.861,0,0,0,.286.2l17.89,9.265a1.93,1.93,0,0,0,1.745,0l18.276-9.011a2.386,2.386,0,0,0,1.112-1.915V75.967a1.93,1.93,0,0,0-.062-.44Zm-23.5-13.682L66.012,69.905V59.729a1.923,1.923,0,0,0,.772-.193L82.3,51.884Zm-16.5-20.152L79.894,48.78,65.95,55.668,52.291,48.556ZM34.664,74.554l13.528-6.864,14.068,7.088-13.9,6.864Zm30.028,13.3L48.384,95.9V85.726a1.923,1.923,0,0,0,.772-.193l15.52-7.652ZM71.98,75.449l13.528-6.864,14.068,7.088-13.9,6.864Zm30.028,13.3L85.7,96.791V86.622a1.923,1.923,0,0,0,.772-.193l15.52-7.652Z" transform="translate(-6.497 -8.568)" fill="#f3b842"/>
    </g>
  </g>
</svg>
