<svg xmlns="http://www.w3.org/2000/svg" width="121.377" height="121.377" viewBox="0 0 121.377 121.377">
  <g id="ayudante" transform="translate(-1340.52 -3402.772)">
    <g id="Capa_1" data-name="Capa 1" transform="translate(1340.52 3402.772)">
      <ellipse id="Ellipse_3" data-name="Ellipse 3" cx="60.689" cy="60.689" rx="60.689" ry="60.689" fill="#fff"/>
      <ellipse id="Ellipse_4" data-name="Ellipse 4" cx="18.153" cy="18.153" rx="18.153" ry="18.153" transform="matrix(0.011, -1, 1, 0.011, 43.087, 59.544)" fill="#f3b842"/>
      <path id="Path_6" data-name="Path 6" d="M99.312,91.412A26.523,26.523,0,0,0,97.984,85.3c-1.436-4.154-2.494-7.814-5.884-9.721a10.13,10.13,0,0,0-6.949-.919c-2.764.7-3.336,2.316-5.667,3.93-5.034,3.436-13.736,3.59-18.531-.1-2.409-1.869-2.973-4.069-5.922-4.741a8.493,8.493,0,0,0-5.173.641c-4.362,1.838-6.308,6.331-7.883,9.976a31.935,31.935,0,0,0-1.544,4.471,35.124,35.124,0,0,0,0,17.033c.625,2.525.957,3.807,2.008,5.027,2.316,2.648,5.806,3.212,9.2,3.251,16.817.193,18.407,1.158,34.884.069,3.336-.216,7.891-.587,10.586-3.9a11.107,11.107,0,0,0,1.953-4.486C100.617,100.43,99.714,95.782,99.312,91.412Z" transform="translate(-8.975 -16.771)" fill="#f3b842"/>
    </g>
  </g>
</svg>
