<svg xmlns="http://www.w3.org/2000/svg" width="121.377" height="121.377" viewBox="0 0 121.377 121.377">
  <g id="carpinteria" transform="translate(-1561.623 -3402.772)">
    <g id="Capa_1" data-name="Capa 1" transform="translate(1561.623 3402.772)">
      <ellipse id="Ellipse_5" data-name="Ellipse 5" cx="60.689" cy="60.689" rx="60.689" ry="60.689" fill="#fff"/>
      <path id="Path_7" data-name="Path 7" d="M103.853,88.235,87.677,72.484h8.03a1.76,1.76,0,0,0,1.228-3.019L82.991,55.891h6.632a1.76,1.76,0,0,0,1.228-3.019L69.008,31.593a1.76,1.76,0,0,0-2.455,0L44.763,52.872a1.76,1.76,0,0,0,1.228,3.019h6.594l-13.9,13.582a1.76,1.76,0,0,0,1.228,3.019H47.89L31.768,88.243a1.76,1.76,0,0,0,1.228,3H55.928v8.725A4.478,4.478,0,0,0,60.4,104.45H75.215a4.478,4.478,0,0,0,4.471-4.478V91.247h22.94a1.76,1.76,0,0,0,1.228-3.019Z" transform="translate(-7.122 -7.086)" fill="#f3b842"/>
    </g>
  </g>
</svg>
