<svg xmlns="http://www.w3.org/2000/svg" width="121.377" height="121.377" viewBox="0 0 121.377 121.377">
  <g id="Electricidad" transform="translate(-677 -3653.435)">
    <g id="Capa_1" data-name="Capa 1" transform="translate(677 3653.435)">
      <ellipse id="Ellipse_6" data-name="Ellipse 6" cx="60.689" cy="60.689" rx="60.689" ry="60.689" fill="#fff"/>
      <path id="Path_8" data-name="Path 8" d="M92.918,41.8A24.986,24.986,0,0,0,68.936,28.43c-8.972.772-16.809,6.316-19.967,14.091-1.243,3.088-2.957,9.111-.425,15.087,1.544,3.629,4.061,5.729,6.293,7.59s4.409,3.675,5.706,7.057a15.937,15.937,0,0,1,1.019,5.806v1.475H59.547a2.432,2.432,0,0,0,0,4.864h2.9v2.131H59.578a2.432,2.432,0,0,0,0,4.864h2.9v1.83H59.153a2.432,2.432,0,1,0,0,4.864H62.6a2.054,2.054,0,0,0,2,1.645h.911a6.339,6.339,0,0,0,12.67,0h.888a2.062,2.062,0,0,0,1.969-1.544H83.12a2.432,2.432,0,1,0,0-4.864H81.151V91.5h2.417a2.432,2.432,0,1,0,0-4.864H81.12V84.5h2.417a2.432,2.432,0,0,0,0-4.864H81.846l.108-1.027a21.11,21.11,0,0,1,1.174-5.088c1.49-4.054,3.706-6.177,6.053-8.493,2.216-2.154,4.5-4.378,5.714-8.015C96.393,52.5,95.7,47.386,92.918,41.8Zm-2.625,13.7c-.834,2.5-2.448,4.077-4.486,6.061-2.509,2.44-5.359,5.212-7.227,10.3A25.735,25.735,0,0,0,77.46,75.9l-11.142-.208a20.353,20.353,0,0,0-1.243-5.142c-1.745-4.571-4.633-6.949-7.134-9.057-2.069-1.722-3.861-3.212-4.926-5.752-1.845-4.362-.51-8.987.456-11.358,2.44-6.015,8.818-10.462,15.882-11.08A20.021,20.021,0,0,1,88.571,44.012C89.4,45.618,91.9,50.6,90.293,55.493Z" transform="translate(-10.765 -6.463)" fill="#f3b842"/>
      <path id="Path_9" data-name="Path 9" d="M85.465,49.132a12.748,12.748,0,0,0-6.949-2.363,1.8,1.8,0,0,0-1.876,1.768,1.822,1.822,0,0,0,1.768,1.876,8.933,8.933,0,0,1,8.069,5.714,1.825,1.825,0,1,0,3.405-1.313,12.755,12.755,0,0,0-4.417-5.683Z" transform="translate(-17.465 -10.658)" fill="#f3b842"/>
    </g>
  </g>
</svg>
