<svg xmlns="http://www.w3.org/2000/svg" width="121.377" height="121.377" viewBox="0 0 121.377 121.377">
  <g id="Electrodomésticos" transform="translate(-1119.623 -3649.435)">
    <g id="Capa_1" data-name="Capa 1" transform="translate(1119.623 3649.435)">
      <ellipse id="Ellipse_7" data-name="Ellipse 7" cx="60.689" cy="60.689" rx="60.689" ry="60.689" fill="#fff"/>
      <path id="Path_10" data-name="Path 10" d="M97.608,97.933,85.748,79.881c7.675-7.976,5.227-20.562,5-21.619a26.515,26.515,0,0,0-7.289-13.126L77.07,49.413,66.492,33.307a4.079,4.079,0,1,0-6.818,4.478L70.3,54l-9.883,6.64L49.737,44.395a4.077,4.077,0,1,0-6.779,4.471L53.644,65.149l-5.8,3.861a26.322,26.322,0,0,0,11.69,13.2c.772.432,10.292,5.258,19.357,2.054l11.891,18.114A4.079,4.079,0,1,0,97.6,97.9Z" transform="translate(-9.587 -7.171)" fill="#f3b842"/>
    </g>
  </g>
</svg>
