<svg xmlns="http://www.w3.org/2000/svg" width="35.68" height="35.68" viewBox="0 0 35.68 35.68">
  <g id="facebook" transform="translate(-47 -6289.216)">
    <g id="Capa_1" data-name="Capa 1" transform="translate(47 6289.216)">
      <path id="Path_26" data-name="Path 26" d="M30.85,0H4.83A4.83,4.83,0,0,0,0,4.83V30.85a4.83,4.83,0,0,0,4.83,4.83H17.647V22.941H14.362a.779.779,0,0,1-.779-.779V18.057a.779.779,0,0,1,.779-.785h3.3V13.282c0-4.606,2.813-7.112,6.919-7.112h3.369a.779.779,0,0,1,.779.779v3.465a.779.779,0,0,1-.779.779H25.875c-2.234,0-2.668,1.063-2.668,2.62v3.435h4.908a.779.779,0,0,1,.773.863l-.513,4.111a.779.779,0,0,1-.749.718h-4.4V35.68H30.85a4.83,4.83,0,0,0,4.83-4.83V4.83A4.83,4.83,0,0,0,30.85,0Z" fill="#fff"/>
    </g>
  </g>
</svg>
