<svg xmlns="http://www.w3.org/2000/svg" width="121.377" height="121.377" viewBox="0 0 121.377 121.377">
  <g id="fumigación" transform="translate(-899 -3402)">
    <g id="Capa_1" data-name="Capa 1" transform="translate(899 3402)">
      <ellipse id="Ellipse_8" data-name="Ellipse 8" cx="60.689" cy="60.689" rx="60.689" ry="60.689" fill="#fff"/>
      <path id="Path_11" data-name="Path 11" d="M75.055,36.22a13.651,13.651,0,0,0-13.365,11H88.467a13.651,13.651,0,0,0-13.412-11Z" transform="translate(-14.058 -8.254)" fill="#f3b842"/>
      <path id="Path_12" data-name="Path 12" d="M100.79,73.643H89.362V60.656c2.5-2.27,5.4-4.9,7.667-6.91A2.652,2.652,0,0,0,93.485,49.8c-3.807,3.413-6.517,5.853-8.493,7.621H50.131c-6.717-7.451-7.034-7.659-7.312-7.845a2.641,2.641,0,0,0-3.173,4.208c.618.61,4.038,4.378,7.436,8.146V73.643H35.631a2.641,2.641,0,1,0,0,5.281H47.089a21.025,21.025,0,0,0,3.606,11.242c-10.748,9.667-11,10.022-11.211,10.339a2.641,2.641,0,0,0,4.216,3.173c.772-.772,6.1-5.6,10.485-9.543a21.048,21.048,0,0,0,12.269,5.25V64.547h3.521V99.4a21.056,21.056,0,0,0,12.833-5.775c2.54,2.787,6.416,7.088,9.126,10.115a2.641,2.641,0,0,0,3.93-3.529c-5.026-5.606-7.953-8.841-9.69-10.725a21.017,21.017,0,0,0,3.189-10.555H100.79a2.641,2.641,0,0,0,0-5.281ZM39.669,53.815l.216.162A1.877,1.877,0,0,1,39.669,53.815Zm4.054,49.84.162-.216a1.86,1.86,0,0,1-.17.216Z" transform="translate(-7.518 -11.194)" fill="#f3b842"/>
    </g>
  </g>
</svg>
