<svg xmlns="http://www.w3.org/2000/svg" width="121.377" height="121.377" viewBox="0 0 121.377 121.377">
  <g id="herreria" transform="translate(-228.725 -3652.435)">
    <g id="Capa_1" data-name="Capa 1" transform="translate(228.725 3652.435)">
      <ellipse id="Ellipse_9" data-name="Ellipse 9" cx="60.689" cy="60.689" rx="60.689" ry="60.689" fill="#fff"/>
      <path id="Path_13" data-name="Path 13" d="M91.845,42.709C82.225,33.884,69.261,32.355,62.891,39.3c-5.582,6.107-4.247,16.7,2.7,25.163L38.407,91.646a4.433,4.433,0,0,0,6.27,6.27L53.687,88.9l3.992,4.208-3.7,3.737a3.227,3.227,0,1,0,4.556,4.54L70.365,89.43a3.227,3.227,0,1,0-4.587-4.541L61.617,89.1l-3.969-4.185L72.056,70.505c9.111,6.416,20.006,6.949,25.681.772C104.106,64.328,101.473,51.558,91.845,42.709ZM68.018,50.044a7.629,7.629,0,1,1,2.171,5.424,7.629,7.629,0,0,1-2.171-5.424Zm17.6,19.179a7.629,7.629,0,1,1,5.424-2.171A7.629,7.629,0,0,1,85.622,69.224Z" transform="translate(-8.456 -7.964)" fill="#f3b842"/>
    </g>
  </g>
</svg>
