<svg xmlns="http://www.w3.org/2000/svg" width="121.377" height="121.377" viewBox="0 0 121.377 121.377">
  <g id="Icono_Jardinería" data-name="Icono Jardinería" transform="translate(-1561.623 -3649.435)">
    <g id="Capa_1" data-name="Capa 1" transform="translate(1561.623 3649.435)">
      <ellipse id="Ellipse_15" data-name="Ellipse 15" cx="60.689" cy="60.689" rx="60.689" ry="60.689" fill="#fff"/>
      <path id="Path_21" data-name="Path 21" d="M93.476,88.9c-6.061-8.239-.579-14.724-4.27-27.5-.888-3.088-5.552-13.126-14.979-20.307-6.849-5.2-18.183-1.313-18.183-1.313a3.482,3.482,0,0,1-1.544-.633c-2.062-1.869-2.71-3.011-4.872-4.764-1.143-.927-2.71-2.193-4.471-1.784A4.417,4.417,0,0,0,42,36.568a4.162,4.162,0,0,0,.51,2.162c1.359,2.494,4.278,1.984,5.505,3.861s0,4.579-.432,5.575c-3.088,7.629-1.212,19.195-.34,24.708.463,2.911,2.409,15.049,12.647,23.341,8.154,6.6,17.079,7.127,22.391,7.436A23.349,23.349,0,0,0,92.6,102.036c2.27-.934,5.258-2.154,5.86-4.532C99.174,94.577,95.816,92.091,93.476,88.9ZM75.8,86.585a2.957,2.957,0,0,1-2.988-2.934A35.263,35.263,0,0,0,69.4,69.19a34.545,34.545,0,0,0-10.81-12.995,3.027,3.027,0,0,1-.687-4.169,2.9,2.9,0,0,1,4.092-.7A40.528,40.528,0,0,1,74.675,66.6a41.4,41.4,0,0,1,4,16.987h0A2.965,2.965,0,0,1,75.8,86.616Z" transform="translate(-9.57 -7.412)" fill="#f3b842"/>
    </g>
  </g>
</svg>
