<svg xmlns="http://www.w3.org/2000/svg" width="121.377" height="121.377" viewBox="0 0 121.377 121.377">
  <g id="Icono_Plomería" data-name="Icono Plomería" transform="translate(-1119.623 -3402.772)">
    <g id="Capa_1" data-name="Capa 1" transform="translate(1119.623 3402.772)">
      <ellipse id="Ellipse_14" data-name="Ellipse 14" cx="60.689" cy="60.689" rx="60.689" ry="60.689" fill="#fff"/>
      <path id="Path_20" data-name="Path 20" d="M104.994,73.817a3.621,3.621,0,0,0-3.621-3.621h-60V47.187a5.065,5.065,0,0,1,4.833-5.25,4.694,4.694,0,0,1,3.861,2.116l.363,14.987A2.9,2.9,0,0,0,55.293,61.1L69.4,48.044a2.9,2.9,0,0,0-1.544-5l-12.748-1.8a10.447,10.447,0,0,0-8.941-5.111A10.861,10.861,0,0,0,35.535,47.179V70.2H33.72a3.625,3.625,0,1,0,0,7.25h1.606A13.365,13.365,0,0,0,40.36,96.309v1.066a4.339,4.339,0,0,0,8.625.664H88.216a13.225,13.225,0,0,0,1.452-.147,4.339,4.339,0,0,0,8.64-.517v-3.93a13.288,13.288,0,0,0,1.444-16h1.606a3.621,3.621,0,0,0,3.637-3.629Z" transform="translate(-6.858 -8.233)" fill="#f3b842"/>
    </g>
  </g>
</svg>
