<svg xmlns="http://www.w3.org/2000/svg" width="36.132" height="36.132" viewBox="0 0 36.132 36.132">
  <g id="instagram" transform="translate(-97.687 -6289)">
    <g id="Capa_1" data-name="Capa 1" transform="translate(97.687 6289)">
      <path id="Path_23" data-name="Path 23" d="M24.841,0H11.291A11.291,11.291,0,0,0,0,11.291v13.55A11.291,11.291,0,0,0,11.291,36.132h13.55A11.291,11.291,0,0,0,36.132,24.841V11.291A11.291,11.291,0,0,0,24.841,0Zm7.908,24.841a7.938,7.938,0,0,1-7.908,7.908H11.291a7.938,7.938,0,0,1-7.9-7.908V11.291a7.938,7.938,0,0,1,7.9-7.9h13.55a7.938,7.938,0,0,1,7.908,7.9Zm0,0" fill="#fff"/>
      <path id="Path_24" data-name="Path 24" d="M23.831,14.79a9.031,9.031,0,1,0,9.031,9.038A9.031,9.031,0,0,0,23.831,14.79Zm0,14.655A5.648,5.648,0,1,1,29.48,23.8,5.648,5.648,0,0,1,23.831,29.445Zm0,0" transform="translate(-5.762 -5.759)" fill="#fff"/>
      <path id="Path_25" data-name="Path 25" d="M45.9,12.9a1.221,1.221,0,1,1-1.221-1.221A1.221,1.221,0,0,1,45.9,12.9Zm0,0" transform="translate(-16.921 -4.548)" fill="#fff"/>
    </g>
  </g>
</svg>
