<svg xmlns="http://www.w3.org/2000/svg" width="121.377" height="121.377" viewBox="0 0 121.377 121.377">
  <g id="linea_blanca" data-name="linea blanca" transform="translate(-899 -3653.435)">
    <g id="Capa_1" data-name="Capa 1" transform="translate(899 3653.435)">
      <ellipse id="Ellipse_10" data-name="Ellipse 10" cx="60.689" cy="60.689" rx="60.689" ry="60.689" fill="#fff"/>
      <path id="Path_14" data-name="Path 14" d="M103.888,49.66H29.163a3.583,3.583,0,0,0-3.583,3.583V90.768a3.583,3.583,0,0,0,3.583,3.583h74.726a3.583,3.583,0,0,0,3.583-3.583V53.243a3.583,3.583,0,0,0-3.583-3.583ZM32.745,63.4a2.316,2.316,0,0,1,2.316-2.316H59.437A2.316,2.316,0,0,1,61.754,63.4v3.088A2.316,2.316,0,0,1,59.437,68.8H35.054a2.316,2.316,0,0,1-2.316-2.316ZM96.939,82.753H32.73a.834.834,0,1,1,0-1.66H96.939a.834.834,0,0,1,0,1.66Z" transform="translate(-5.829 -11.317)" fill="#f3b842"/>
    </g>
  </g>
</svg>
