<svg xmlns="http://www.w3.org/2000/svg" width="33.325" height="33.325" viewBox="0 0 33.325 33.325">
  <g id="linked_in" data-name="linked in" transform="translate(-200.687 -6290.875)">
    <g id="Capa_1" data-name="Capa 1" transform="translate(200.687 6290.875)">
      <path id="Path_27" data-name="Path 27" d="M30.3,0H3.019A3.019,3.019,0,0,0,0,3.019V30.307a3.019,3.019,0,0,0,3.019,3.019H30.306a3.019,3.019,0,0,0,3.019-3.019V3.019A3.019,3.019,0,0,0,30.3,0ZM10.311,28.767a.875.875,0,0,1-.875.875H5.7a.875.875,0,0,1-.869-.875V13.119a.875.875,0,0,1,.875-.875H9.436a.875.875,0,0,1,.875.875Zm-2.747-18a3.544,3.544,0,1,1,3.55-3.52,3.544,3.544,0,0,1-3.55,3.52ZM29.823,28.839a.809.809,0,0,1-.809.809H25.006a.809.809,0,0,1-.809-.809V21.5c0-1.093.32-4.8-2.862-4.8-2.469,0-2.97,2.536-3.073,3.671v8.452a.809.809,0,0,1-.809.809H13.59a.809.809,0,0,1-.809-.809V13.046a.809.809,0,0,1,.809-.809h3.876a.809.809,0,0,1,.809.809v1.364C19.192,13.034,20.55,12,23.448,12c6.417,0,6.381,5.995,6.381,9.285v7.559Z" transform="translate(0 0)" fill="#fff"/>
    </g>
  </g>
</svg>
