<svg xmlns="http://www.w3.org/2000/svg" width="175.462" height="60.894" viewBox="0 0 175.462 60.894">
  <g id="Logo_blanco" data-name="Logo blanco" transform="translate(-1695 -6325.106)">
    <g id="Capa_1" data-name="Capa 1" transform="translate(1695 6325.106)">
      <path id="Path_28" data-name="Path 28" d="M72.06,13.43H96.668v7.557H80.777v9.034H94.682v7.24H80.777V51.167H72.06Zm30.814,37.737h8.592v-29.6h-8.592Zm43.251-29.6h-9.351L134.4,25.792c-2.5,4.546-2.819,6.089-2.819,6.089h-.259a38.147,38.147,0,0,0-2.694-6.148l-2.244-4.171h-9.926L125.4,36.369l-9.509,14.8h9.226l3.2-5.38a22.852,22.852,0,0,0,2.694-5.514h.225s.125,1.6,2.5,5.447l3.337,5.447h9.484l-9.593-15.057ZM151,51.167h8.6v-29.6H151Zm34.918-8.392a8.725,8.725,0,0,1-5.188,1.86c-2.369,0-3.587-1.026-3.587-4.171V28.17h8.842v-6.6h-8.775V14.264l-8.583,1.026v6.281h-4.354v6.6h4.3V42.392c0,6.79,3.845,9.551,9.743,9.551a19.878,19.878,0,0,0,9.1-1.919Z" transform="translate(-11.946 -2.227)" fill="#fff"/>
      <path id="Path_29" data-name="Path 29" d="M43.067,7.391h0a25.233,25.233,0,0,0-35.685,0h0A25.233,25.233,0,0,0,5.338,40.757l8.342-8.734A12.387,12.387,0,0,1,16.59,19.636C20.469,15.582,27.2,13.8,29.937,16.4l-8.6,8.959L28.01,31.7l8.617-8.976c2.669,2.5,1.285,9.343-2.578,13.347a12.571,12.571,0,0,1-12.3,3.554l-8.709,9.1,12.187,12.17L43.067,43.076a25.233,25.233,0,0,0,0-35.685Z" transform="translate(0.006 0)" fill="#fff"/>
    </g>
  </g>
</svg>
