<svg xmlns="http://www.w3.org/2000/svg" width="133.007" height="46.16" viewBox="0 0 133.007 46.16">
  <g id="Logo" transform="translate(-114.76 -56.24)">
    <path id="Path_1" data-name="Path 1" d="M72.06,13.43H90.714v5.729H78.668v6.848H89.209V31.5H78.668V42.036H72.06ZM95.418,42.036h6.513V19.6H95.418ZM128.2,19.6h-7.088l-1.8,3.206a21.085,21.085,0,0,0-2.137,4.616h-.2a28.918,28.918,0,0,0-2.042-4.66l-1.7-3.162h-7.525l6.772,11.224-7.209,11.217h6.994l2.428-4.079a17.324,17.324,0,0,0,2.042-4.18h.171s.095,1.214,1.9,4.129l2.529,4.129h7.19l-7.272-11.413ZM131.9,42.036h6.519V19.6H131.9Zm26.469-6.361a6.614,6.614,0,0,1-3.933,1.41c-1.8,0-2.719-.778-2.719-3.162V24.6h6.7v-5h-6.652V14.062l-6.507.778V19.6h-3.3v5h3.256V35.384c0,5.147,2.915,7.24,7.386,7.24a15.068,15.068,0,0,0,6.9-1.454Z" transform="translate(88.268 51.302)" fill="#0e2533"/>
    <path id="Path_2" data-name="Path 2" d="M32.645,5.6h0a19.128,19.128,0,0,0-27.051,0h0A19.128,19.128,0,0,0,4.045,30.9l6.323-6.62a9.39,9.39,0,0,1,2.207-9.39c2.94-3.073,8.043-4.426,10.117-2.453l-6.519,6.791,5.059,4.806,6.532-6.8c2.023,1.9.974,7.082-1.954,10.117a9.529,9.529,0,0,1-9.327,2.694l-6.6,6.9,9.238,9.226L32.645,32.653a19.128,19.128,0,0,0,0-27.051Z" transform="translate(114.765 56.24)" fill="#f3b842"/>
  </g>
</svg>
