<svg xmlns="http://www.w3.org/2000/svg" width="121.377" height="121.377" viewBox="0 0 121.377 121.377">
  <g id="mecanica" transform="translate(-456.828 -3402.772)">
    <g id="Capa_1" data-name="Capa 1" transform="translate(456.828 3402.772)">
      <ellipse id="Ellipse_11" data-name="Ellipse 11" cx="60.689" cy="60.689" rx="60.689" ry="60.689" fill="#fff"/>
      <path id="Path_15" data-name="Path 15" d="M66.762,69l-26.3,26.545s-1.4,2.37-.139,3.907,6.578,6.7,6.578,6.7a3.93,3.93,0,0,0,4.046-.625c2.231-1.606,25.881-25.395,25.881-25.395S67.751,79.254,66.762,69Z" transform="translate(-9.07 -15.724)" fill="#f3b842"/>
      <path id="Path_16" data-name="Path 16" d="M101.133,43.356,89.721,50.051,89.3,58l7.011,4.085L107.827,55.6A15.749,15.749,0,0,1,88.571,72.133,16.516,16.516,0,0,1,76.116,60.621c-2.262-7.876,1.807-17.272,9.628-20.075C93.451,37.751,100.523,42.893,101.133,43.356Z" transform="translate(-17.204 -9.051)" fill="#f3b842"/>
    </g>
  </g>
</svg>
