<svg xmlns="http://www.w3.org/2000/svg" width="121.377" height="121.377" viewBox="0 0 121.377 121.377">
  <g id="mudanza" transform="translate(-678 -3402.772)">
    <g id="Capa_1" data-name="Capa 1" transform="translate(678 3402.772)">
      <ellipse id="Ellipse_12" data-name="Ellipse 12" cx="60.689" cy="60.689" rx="60.689" ry="60.689" fill="#fff"/>
      <path id="Path_17" data-name="Path 17" d="M99.614,38.108,61.108,38a6.061,6.061,0,0,0-6.077,6.046v5.9h-8.9a2.573,2.573,0,0,0-.317,0,2.61,2.61,0,0,0-2.031.726L33.459,60.793c-.039.039-.054.093-.093.131a2.625,2.625,0,0,0-.919,1.969L32.4,68.831a3.613,3.613,0,0,0-.185,1.1V83.895H31.081a2.2,2.2,0,1,0,0,4.4h6.594c0,.317-.046.633-.054.957a11.084,11.084,0,1,0,22.168.054,6.576,6.576,0,0,0-.046-.957h10.81a3.622,3.622,0,0,0,.973-.147h6.115a11.088,11.088,0,1,0,21.99,0,6.053,6.053,0,0,0,5.853-6.023l.178-38A6.061,6.061,0,0,0,99.614,38.108ZM54.97,66.329,37.7,66.283v-2.27l8.987-8.787H55Z" transform="translate(-6.581 -8.659)" fill="#f3b842"/>
    </g>
  </g>
</svg>
