<svg xmlns="http://www.w3.org/2000/svg" width="121.377" height="121.377" viewBox="0 0 121.377 121.377">
  <g id="Pintura" transform="translate(-1340.52 -3650.435)">
    <g id="Capa_1" data-name="Capa 1" transform="translate(1340.52 3650.435)">
      <ellipse id="Ellipse_13" data-name="Ellipse 13" cx="60.689" cy="60.689" rx="60.689" ry="60.689" fill="#fff"/>
      <path id="Path_18" data-name="Path 18" d="M64.867,62.609,50.39,47.661a3.976,3.976,0,0,1,0-5.451l5.544-5.86a3.861,3.861,0,0,1,2.695-1.143l3.127-3.312a7.235,7.235,0,0,0-8.532,1.652l-5.575,5.86a8.022,8.022,0,0,0,.062,11.1L62.188,65.451a3.861,3.861,0,0,1,0,5.266l-2.417,2.556L58,71.4a1.1,1.1,0,0,0-1.621,0L31.821,97.44a2.17,2.17,0,0,0,0,3.011l5.158,5.328a1.953,1.953,0,0,0,2.88,0L64.427,79.727a1.235,1.235,0,0,0,0-1.691l-1.814-1.869,2.409-2.556-.093-.108A7.961,7.961,0,0,0,64.867,62.609Z" transform="translate(-7.113 -7.102)" fill="#f3b842"/>
      <path id="Path_19" data-name="Path 19" d="M110.91,61.238,80.69,30.029a4.424,4.424,0,0,0-6.478.039l-6.949,7.374a4.918,4.918,0,0,0,0,6.764l30.313,31.3a4.424,4.424,0,0,0,6.478-.039L111,68.095A5.042,5.042,0,0,0,110.91,61.238Z" transform="translate(-15.021 -6.526)" fill="#f3b842"/>
    </g>
  </g>
</svg>
