<svg xmlns="http://www.w3.org/2000/svg" width="36.79" height="30.554" viewBox="0 0 36.79 30.554">
  <g id="twitter" transform="translate(-148.687 -6292)">
    <g id="Capa_1" data-name="Capa 1" transform="translate(148.687 6292)">
      <path id="Path_22" data-name="Path 22" d="M36.14,3.553a14.545,14.545,0,0,1-2.536.856,7.9,7.9,0,0,0,2.083-3.323h0A.415.415,0,0,0,35.067.6h0a14.619,14.619,0,0,1-3.875,1.6.986.986,0,0,1-.242,0,1.029,1.029,0,0,1-.676-.26A7.917,7.917,0,0,0,25.054,0a8.469,8.469,0,0,0-2.48.384,7.675,7.675,0,0,0-5.226,5.53,8.45,8.45,0,0,0-.186,2.914.285.285,0,0,1-.074.223.291.291,0,0,1-.217.1h0A20.77,20.77,0,0,1,2.611,1.525h0a.415.415,0,0,0-.676.056h0a7.93,7.93,0,0,0,1.271,9.628,7.1,7.1,0,0,1-1.8-.7h0a.415.415,0,0,0-.62.36h0a7.93,7.93,0,0,0,4.625,7.3H5.239a7.123,7.123,0,0,1-1.333-.13h0a.415.415,0,0,0-.471.533h0a7.936,7.936,0,0,0,6.268,5.4,14.613,14.613,0,0,1-8.184,2.48H.608a.615.615,0,0,0-.322,1.153A21.737,21.737,0,0,0,11.21,30.553a22.034,22.034,0,0,0,9.337-1.978,20.615,20.615,0,0,0,6.82-5.121,22.437,22.437,0,0,0,4.241-7,22.127,22.127,0,0,0,1.42-7.663V8.68a1.345,1.345,0,0,1,.5-1.048,15.655,15.655,0,0,0,3.15-3.46h0a.415.415,0,0,0-.515-.62Z" transform="translate(0.031 0)" fill="#fff"/>
    </g>
  </g>
</svg>
