<?xml version="1.0" encoding="UTF-8"?>
<svg width="32px" height="68px" viewBox="0 0 32 68" version="1.1" xmlns="http://www.w3.org/2000/svg" xmlns:xlink="http://www.w3.org/1999/xlink">
    <!-- Generator: Sketch 45.2 (43514) - http://www.bohemiancoding.com/sketch -->
    <title>Fill 1</title>
    <desc>Created with Sketch.</desc>
    <defs></defs>
    <g id="Page-1" stroke="none" stroke-width="1" fill="none" fill-rule="evenodd">
        <g id="Landing" transform="translate(-45.000000, -454.000000)" fill="#FFED6D">
            <path d="M90.3271534,511.681 C90.0961534,511.834 89.8611534,512.07 89.6241534,512.085 C88.6071534,512.157 87.5881534,512.155 86.5701534,512.126 C85.3031534,512.118 84.0371534,512.031 82.7731534,511.938 C81.1021534,511.798 79.4351534,511.597 77.7761534,511.343 C75.2331534,510.97 72.7471534,510.338 70.2051534,509.85 C68.9801534,509.6 67.8361534,509.072 66.6671534,508.643 C65.2851534,508.146 63.9051534,507.631 62.5611534,507.028 C60.7451534,506.185 58.9841534,505.223 57.2851534,504.158 C55.4731534,503.006 53.7491534,501.713 52.1491534,500.274 L52.1321534,500.293 C51.7501534,499.966 51.3891534,499.617 51.0341534,499.26 C50.3241534,498.585 49.6731534,497.849 49.0241534,497.114 L48.1291534,496.051 L47.2781534,494.946 L46.4581534,493.861 C46.3581534,493.723 46.1971534,493.617 46.1531534,493.449 C45.7211534,492.012 44.7571534,490.852 44.2861534,489.425 C43.6091534,487.362 43.1921534,485.191 43.1911534,483 C43.2071534,480.47 43.6671534,477.927 44.6051534,475.576 C45.2561534,473.887 46.0991534,472.278 47.0881534,470.768 L47.9271534,469.521 C48.2191534,469.116 48.5221534,468.717 48.8331534,468.324 C49.9331534,467.01 51.0701534,465.69 52.4871534,464.722 C52.8881534,464.455 53.2801534,464.18 53.6741534,463.911 L52.5301534,464.035 C51.5791534,464.137 50.6291534,464.292 49.6781534,464.143 C49.2981534,464.084 48.9171534,464.255 48.5361534,464.277 C47.8151534,464.317 47.0931534,464.327 46.3711534,464.345 C45.6361534,464.363 44.9011534,464.391 44.1651534,464.384 L41.0241534,464.312 C40.4671534,464.302 39.9101534,464.283 39.3521534,464.308 C38.8501534,464.331 38.3491534,464.423 37.8471534,464.462 L36.1381534,464.559 L35.1221534,464.635 C35.0841534,464.637 35.0431534,464.577 35.0101534,464.496 C34.9981534,464.468 34.9981534,464.207 35.0031534,464.201 C35.1181534,464.044 35.2341534,463.804 35.3511534,463.785 C35.8551534,463.704 36.3591534,463.683 36.8631534,463.651 L38.7431534,463.547 L41.2281534,463.439 C42.4941534,463.361 43.7601534,463.411 45.0261534,463.139 C45.6371534,463.008 46.2501534,463.155 46.8621534,463.142 L49.0251534,463.042 L51.9661534,463.026 L55.3351534,463.026 L55.3481534,463 L56.1071534,463 L56.1071534,463.247 L56.1111534,464.225 L56.1231534,465.052 C56.1391534,465.501 56.1671534,465.951 56.2061534,466.4 C56.2251534,466.618 56.2791534,466.835 56.3191534,467.053 C56.3351534,467.135 56.4051534,467.218 56.3681534,467.298 C56.0451534,468.006 56.4311534,468.712 56.4211534,469.419 C56.4071534,470.453 56.4601534,471.488 56.4791534,472.523 L56.5431534,476.119 C56.5641534,476.976 56.5981534,477.833 56.6421534,478.691 C56.6681534,479.166 56.7471534,479.642 56.7681534,480.118 C56.8031534,480.935 56.9571534,481.753 56.7711534,482.568 C56.6691534,483.015 56.6371534,483.462 56.5561534,483.909 C56.5451534,483.975 56.4301534,484.04 56.3381534,484.104 C56.3301534,484.11 56.0561534,484.108 56.0391534,484.098 C55.9331534,484.036 55.8021534,483.971 55.7981534,483.907 C55.7751534,483.526 55.7891534,483.146 55.7821534,482.766 C55.7801534,482.684 55.7641534,482.602 55.7201534,482.522 C55.4371534,482.007 55.4361534,481.496 55.7021534,480.978 C55.9291534,480.535 55.7691534,480.082 55.7871534,479.635 L55.8871534,477.308 C55.8891534,477.268 55.9041534,477.227 55.8991534,477.187 C55.8391534,476.684 55.7461534,476.181 55.7211534,475.677 C55.6871534,474.998 55.7181534,474.32 55.6991534,473.64 C55.6841534,473.098 55.6311534,472.556 55.6041534,472.014 L55.4711534,469.077 C55.4421534,468.383 55.4051534,467.688 55.4051534,466.993 C55.4051534,466.531 55.4781534,466.069 55.4911534,465.607 C55.4971534,465.39 55.4171534,465.172 55.4101534,464.955 C55.4021534,464.705 55.4071534,464.512 55.4101534,464.341 C55.4121534,464.16 55.4111534,463.974 55.3921534,463.812 L55.3821534,463.725 L55.2881534,463.736 C55.2761534,463.75 55.2721534,463.775 55.2581534,463.786 C54.6471534,464.26 54.0251534,464.718 53.4381534,465.222 C53.3101534,465.327 53.1911534,465.446 53.0941534,465.583 C52.4861534,466.482 51.7471534,467.17 50.8181534,467.735 C50.0361534,468.232 49.5281534,469.023 48.9481534,469.723 C47.9401534,470.937 47.0151534,472.227 46.2341534,473.61 C46.1901534,473.68 46.1441534,473.749 46.1111534,473.826 C45.6981534,474.773 45.3611534,475.745 45.0551534,476.721 C44.6101534,478.026 44.2921534,479.375 44.1261534,480.742 C44.0701534,481.29 44.0231534,481.838 44.0371534,482.388 C44.0191534,482.937 44.0561534,483.485 44.0991534,484.031 C44.2431534,486.003 44.7001534,487.942 45.4231534,489.768 C45.9231534,491.071 46.5811534,492.305 47.3061534,493.493 C47.7771534,494.288 48.2591534,495.084 48.8061534,495.838 C49.0771534,496.182 49.4131534,496.473 49.6931534,496.807 C50.3181534,497.493 50.9121534,498.213 51.6141534,498.827 C53.2391534,500.291 55.0221534,501.564 56.8871534,502.682 C58.5141534,503.672 60.2341534,504.468 61.8611534,505.455 C62.5101534,505.854 63.2711534,506.028 63.9741534,506.31 C65.3011534,506.869 66.6471534,507.383 68.0081534,507.851 C69.3961534,508.328 70.8071534,508.732 72.2191534,509.132 C74.2361534,509.676 76.2661534,510.197 78.3311534,510.556 C79.4271534,510.757 80.5291534,510.935 81.6391534,511.044 C82.6401534,511.139 83.6461534,511.16 84.6501534,511.188 C85.7871534,511.251 86.9261534,511.264 88.0631534,511.286 L90.0891534,511.243 C90.1651534,511.242 90.2461534,511.304 90.3131534,511.385 C90.3371534,511.413 90.3371534,511.675 90.3271534,511.681" id="Fill-1" transform="translate(62.666730, 487.572416) rotate(27.000000) translate(-62.666730, -487.572416) "></path>
        </g>
    </g>
</svg>