<?xml version="1.0" encoding="UTF-8"?>
<svg width="145px" height="42px" viewBox="0 0 145 42" version="1.1" xmlns="http://www.w3.org/2000/svg" xmlns:xlink="http://www.w3.org/1999/xlink">
    <!-- Generator: Sketch 45.2 (43514) - http://www.bohemiancoding.com/sketch -->
    <title>Group 11</title>
    <desc>Created with Sketch.</desc>
    <defs>
        <polygon id="path-1" points="9.19239237e-16 41.174024 9.19239237e-16 0.000187294823 46.0431546 0.000187294823 46.0431546 41.174024"></polygon>
    </defs>
    <g id="Page-1" stroke="none" stroke-width="1" fill="none" fill-rule="evenodd">
        <g id="Landing" transform="translate(-90.000000, -69.000000)">
            <g id="Group-11" transform="translate(90.000000, 69.000000)">
                <g id="Page-1">
                    <mask id="mask-2" fill="white">
                        <use xlink:href="#path-1"></use>
                    </mask>
                    <g id="Clip-2"></g>
                    <path d="M23.8148177,23.8445508 C20.6102033,24.370381 17.8785083,21.6391542 18.4043385,18.4340716 C18.7227397,16.4936972 20.2880562,14.9283807 22.2288988,14.6099795 C25.4335132,14.0846175 28.16474,16.8158443 27.6389098,20.0204587 C27.3205086,21.9613013 25.7556603,23.5261496 23.8148177,23.8445508 M22.094983,0.245403042 L0.9461198,12.2893967 C0.361291714,12.6223132 -0.000187294823,13.2436638 -0.000187294823,13.9169887 L-0.000187294823,39.2996513 C-0.000187294823,40.5667008 1.2317444,41.4680572 2.43932778,41.0850392 L16.4082439,36.6545802 C17.1864539,36.4078193 17.7150936,35.6853295 17.7150936,34.8691923 L17.7150936,29.0607116 C17.7150936,28.0259077 18.5537061,27.1872951 19.5880418,27.1872951 L26.4552065,27.1872951 C27.4900104,27.1872951 28.3281547,28.0259077 28.3281547,29.0607116 L28.3281547,34.8691923 C28.3281547,35.6853295 28.8572626,36.4078193 29.6350043,36.6545802 L43.6039205,41.0850392 C44.8115039,41.4680572 46.0434356,40.5667008 46.0434356,39.2996513 L46.0434356,13.9169887 C46.0434356,13.2436638 45.6819566,12.6223132 45.0971285,12.2893967 L23.9487335,0.245403042 C23.3742066,-0.0818946615 22.6695099,-0.0818946615 22.094983,0.245403042" id="Fill-1" fill="#FFBA32" mask="url(#mask-2)"></path>
                </g>
                <path d="M143.431482,27.9571665 C142.25509,28.7849978 141.165424,29.2206985 139.901892,29.2206985 C138.289384,29.2206985 137.461553,28.5235774 137.461553,26.388644 L137.461553,18.0223608 L143.475052,18.0223608 L143.475052,13.5338137 L137.505123,13.5338137 L137.505123,8.5664109 L131.666319,9.26353201 L131.666319,13.5338137 L128.703139,13.5338137 L128.703139,18.0223608 L131.622749,18.0223608 L131.622749,27.6957461 C131.622749,32.3145883 134.237368,34.1885163 138.245814,34.1885163 C140.642583,34.1885163 142.734361,33.7524006 144.433594,32.8809992 L143.431482,27.9571665 Z M119.68372,33.6652605 L125.522524,33.6652605 L125.522524,13.5338137 L119.68372,13.5338137 L119.68372,33.6652605 Z M116.371979,13.5338137 L110.010334,13.5338137 L108.397827,16.4098533 C106.698594,19.5037431 106.480744,20.5494248 106.480744,20.5494248 L106.306049,20.5494248 C106.306049,20.5494248 106.044628,19.5037431 104.476106,16.3662832 L102.951153,13.5338137 L96.1969626,13.5338137 L102.297602,23.5997446 L95.804832,33.6652605 L102.079337,33.6652605 L104.258255,30.0053747 C105.826778,27.3907556 106.088198,26.2575188 106.088198,26.2575188 L106.262479,26.2575188 C106.262479,26.2575188 106.350034,27.3471855 107.962126,29.9618046 L110.22777,33.6652605 L116.67697,33.6652605 L110.14063,23.4254643 L116.371979,13.5338137 Z M86.9592781,33.6652605 L92.7980823,33.6652605 L92.7980823,13.5338137 L86.9592781,13.5338137 L86.9592781,33.6652605 Z M66,8 L82.7329813,8 L82.7329813,13.1416831 L71.9263593,13.1416831 L71.9263593,19.2858928 L81.3818942,19.2858928 L81.3818942,24.2097256 L71.9263593,24.2097256 L71.9263593,33.6652605 L66,33.6652605 L66,8 Z" id="Fill-1" fill="#FFFFFF"></path>
            </g>
        </g>
    </g>
</svg>