<?xml version="1.0" encoding="UTF-8"?>
<svg width="98px" height="94px" viewBox="0 0 98 94" version="1.1" xmlns="http://www.w3.org/2000/svg" xmlns:xlink="http://www.w3.org/1999/xlink">
    <!-- Generator: Sketch 48.2 (47327) - http://www.bohemiancoding.com/sketch -->
    <title>step_2</title>
    <desc>Created with Sketch.</desc>
    <defs></defs>
    <g id="Artboard" stroke="none" stroke-width="1" fill="none" fill-rule="evenodd" transform="translate(-590.000000, -1500.000000)">
        <g id="step_2" transform="translate(590.000000, 1500.000000)">
            <path d="M97.7258471,38.6983307 C98.2492871,40.6553307 97.9641271,42.7413307 96.9328771,44.4913307 C95.9016771,46.2374307 94.2140771,47.4952307 92.2492771,47.9874307 L87.9289771,49.1085307 L86.8078771,49.3975907 L71.7488771,53.2881907 C72.7019971,50.5654907 72.6746571,47.5928907 71.6668471,44.8858907 L78.7684471,43.0342907 L78.7684471,43.0381907 C78.0223571,37.2373907 81.2645471,31.6591907 86.6786471,29.4361907 L84.7489471,22.2564907 L83.8387871,18.8853907 C78.0223871,19.6432007 72.4007871,16.4751907 70.0377871,11.1080907 L59.5377871,13.8268907 L52.5885871,15.6354907 L44.5885871,17.7252907 C45.3307771,23.5299907 42.0885871,29.1082907 36.6783871,31.3272907 L37.5494771,34.5460907 L41.0299771,47.5460907 L33.8580771,52.7063007 L25.5768771,22.0652907 C25.0651571,20.1121907 25.3542171,18.0340907 26.3854671,16.2957907 C27.4127671,14.5535907 29.0963671,13.2996907 31.0573671,12.8074907 L50.4673671,7.80749071 L57.4165671,5.98719071 L79.4165671,0.26839071 C83.4985671,-0.81360929 87.6938671,1.58869071 88.8267671,5.65899071 L97.7258471,38.6983307 Z M56.5458471,36.8858307 C59.9052471,36.0264507 63.4677471,36.5147407 66.4677471,38.2491307 C70.0107471,36.1827307 71.7411471,32.0030307 70.6865471,28.0381307 C69.3115471,23.1084307 64.2256471,20.1983307 59.2765471,21.5069307 C55.9679471,22.3116207 53.3859471,24.8936307 52.5812471,28.2022307 C51.7765471,31.5108307 52.8820271,34.9913307 55.4484471,37.2256307 C55.8078171,37.0967207 56.1789171,36.9873507 56.5461471,36.8857907 L56.5458471,36.8858307 Z" id="Page-1" fill="#F3C42B"></path>
            <path d="M9.06584708,92.2688287 C9.23381708,92.8742987 9.63615708,93.3899287 10.1830471,93.6985287 C10.7338271,94.0071187 11.3822471,94.0813387 11.9877471,93.9094687 L18.2572471,92.2805687 L22.7963471,91.1008687 L22.7963471,91.0969627 C30.5268471,89.0852627 37.4873471,84.8313607 42.8083471,78.8779607 C44.1052471,81.2138607 46.8239471,82.3740607 49.4099471,81.6982607 C51.1326471,81.2490407 52.5544471,80.0263607 53.2576471,78.3857607 C54.6599471,80.3974607 57.1638471,81.3232607 59.5388471,80.7060607 C61.9021471,80.1045007 63.6247471,78.0771607 63.8396471,75.6474607 C65.2654471,76.7255607 67.1052471,77.0927607 68.8396471,76.6474607 C71.7380471,75.9130807 73.5779471,73.0615607 73.0584471,70.1162607 L70.8982471,61.9873607 C70.5779371,60.8271607 69.3826471,60.1396607 68.2185471,60.4482607 L54.9885471,63.9287607 L64.5471471,53.7567607 C66.6838471,51.5731607 66.9963471,48.1942607 65.2971471,45.6590607 C63.7190471,43.4090607 60.9065471,42.3817607 58.2502471,43.0770607 C57.4689971,43.2762807 56.7346471,43.6122207 56.0783471,44.0770607 L36.3793471,58.2370607 L36.3168471,58.2370607 C35.7816871,58.6198707 35.1801471,58.9011207 34.5395471,59.0651807 C33.0473471,59.4519007 31.4614471,59.1823707 30.1801471,58.3269007 C29.0981471,57.5847107 28.3207471,56.4831007 27.9887471,55.2175007 L22.6371471,35.2955007 C22.1488671,35.3697207 21.6683971,35.4673807 21.1879471,35.5962807 C18.1996471,36.3619007 15.5395471,38.0650807 13.5902471,40.4556807 L0.590247083,56.4556807 C0.055087083,57.1080207 -0.128503117,57.9751807 0.090247083,58.7876807 L9.06584708,92.2688287 Z" id="Path" fill="#C5DAE1"></path>
        </g>
    </g>
</svg>