<?xml version="1.0" encoding="UTF-8"?>
<svg width="68px" height="68px" viewBox="0 0 68 68" version="1.1" xmlns="http://www.w3.org/2000/svg" xmlns:xlink="http://www.w3.org/1999/xlink">
    <!-- Generator: Sketch 48.2 (47327) - http://www.bohemiancoding.com/sketch -->
    <title>Page 1</title>
    <desc>Created with Sketch.</desc>
    <defs></defs>
    <g id="Artboard" stroke="none" stroke-width="1" fill="none" fill-rule="evenodd" transform="translate(-1015.000000, -1511.000000)">
        <g id="Group-4" transform="translate(915.000000, 1511.000000)">
            <g id="Page-1" transform="translate(100.000000, 0.000000)">
                <path d="M34,9 C47.75,9 59,20.25 59,34 C59,47.75 47.75,59 34,59 C20.25,59 9,47.75 9,34 C9,20.25 20.25,9 34,9 Z M34,0.668 C15.668,0.668 0.668,15.668 0.668,34 C0.668,52.332 15.668,67.332 34,67.332 C52.332,67.332 67.332,52.332 67.332,34 C67.332,15.668 52.332,0.668 34,0.668 Z" id="Fill-1" fill="#C5DAE1"></path>
                <path d="M47.75,45.875 C47.125,45.875 46.5,45.66797 46.082,45.45703 L30.875,35.87503 L30.875,25.66803 C30.875,24.00003 32.332,22.54303 34,22.54303 C35.668,22.54303 37.125,24.00003 37.125,25.66803 L37.125,32.33603 L49.418,40.04303 C50.875,40.87506 51.293,42.96103 50.461,44.41803 C49.83209,45.25006 48.793,45.87503 47.7501,45.87503 L47.75,45.875 Z" id="Fill-2" fill="#000000"></path>
                <path d="M36.082,13.168 C36.082,15.9453 31.9179,15.9453 31.9179,13.168 C31.9179,10.3907 36.082,10.3907 36.082,13.168" id="Fill-3" fill="#000000"></path>
                <path d="M15.25,34 C15.25,36.7773 11.082,36.7773 11.082,34 C11.082,31.2227 15.25,31.2227 15.25,34" id="Fill-4" fill="#C5DAE1"></path>
                <path d="M36.082,54.832 C36.082,57.6093 31.9179,57.6093 31.9179,54.832 C31.9179,52.0547 36.082,52.0547 36.082,54.832" id="Fill-5" fill="#C5DAE1"></path>
                <path d="M56.918,34 C56.918,36.7773 52.75,36.7773 52.75,34 C52.75,31.2227 56.918,31.2227 56.918,34" id="Fill-6" fill="#000000"></path>
            </g>
        </g>
    </g>
</svg>