<?xml version="1.0" encoding="UTF-8"?>
<svg width="76px" height="76px" viewBox="0 0 76 76" version="1.1" xmlns="http://www.w3.org/2000/svg" xmlns:xlink="http://www.w3.org/1999/xlink">
    <!-- Generator: Sketch 48.2 (47327) - http://www.bohemiancoding.com/sketch -->
    <title>Page 1</title>
    <desc>Created with Sketch.</desc>
    <defs></defs>
    <g id="Artboard" stroke="none" stroke-width="1" fill="none" fill-rule="evenodd" transform="translate(-195.000000, -1518.000000)">
        <g id="Group-6" transform="translate(100.000000, 1518.000000)">
            <g id="Page-1" transform="translate(95.000000, 0.000000)">
                <path d="M68.7723677,6.00033939 L64.3951268,6.00033939 L64.3951268,12.0358302 C64.3951268,15.0950239 61.9277566,17.574112 58.8832115,17.574112 L58.5236657,17.574112 C55.4790361,17.574112 53.0117504,15.094939 53.0117504,12.0358302 L53.0117504,6.00033939 L23.1362961,6.00033939 L23.1362961,12.0358302 C23.1362961,15.0950239 20.6689259,17.574112 17.6243807,17.574112 L17.2648349,17.574112 C14.2202053,17.574112 11.7529196,15.094939 11.7529196,12.0358302 L11.7529196,6.00033939 L7.22722612,6.00033939 C3.23589533,6.00033939 0,9.2517137 0,13.262138 L0,68.734894 C0,72.7453166 3.23589533,76 7.23051944,76 L59.2429768,76 C60.0972971,76 60.9120976,75.6420519 61.4926503,75.0155938 L75.1852502,60.1867153 C75.7064303,59.6133297 76,58.8642748 76,58.0886795 L76,13.2617986 C76,9.25137431 72.7641047,6 68.772773,6 L68.7723677,6.00033939 Z M60.7699445,70.2260123 L60.7699445,62.3511023 C60.7699445,60.8530265 61.9838275,59.6333369 63.4747713,59.6333369 L70.7811223,59.6333369 L60.7699445,70.2260123 Z M71.4774478,55.089134 L63.478318,55.089134 C59.4902796,55.089134 56.2477977,58.3471264 56.2477977,62.3509326 L56.2477977,71.4525746 L7.23057011,71.4525746 C5.73962627,71.4525746 4.5257433,70.232885 4.5257433,68.7348092 L4.52244998,25.469131 L71.4739012,25.469131 L71.4774478,55.089134 Z" id="Fill-1" fill="#C5DAE1"></path>
                <path d="M15.2921897,46 L23.7078103,46 C25.5257665,46 27,43.936137 27,41.3913494 L27,36.6086506 C27,34.0637756 25.5257665,32 23.7078103,32 L15.2921897,32 C13.4742335,32 12,34.063863 12,36.6086506 L12,41.3913494 C12,43.9362244 13.4742335,46 15.2921897,46 Z" id="Fill-2" fill="#C5DAE1"></path>
                <path d="M34.2929141,46 L42.7070859,46 C44.5254421,46 46,43.936137 46,41.3913494 L46,36.6086506 C46,34.0637756 44.5254421,32 42.7070859,32 L34.2929141,32 C32.4745579,32 31,34.063863 31,36.6086506 L31,41.3913494 C31,43.9362244 32.4745579,46 34.2929141,46 Z" id="Fill-3" fill="#F3C42B"></path>
                <path d="M52.2921897,46 L60.7078103,46 C62.5257665,46 64,43.936137 64,41.3913494 L64,36.6086506 C64,34.0637756 62.5257665,32 60.7078103,32 L52.2921897,32 C50.4742335,32 49,34.063863 49,36.6086506 L49,41.3913494 C49,43.9362244 50.4709333,46 52.2921897,46 Z" id="Fill-4" fill="#C5DAE1"></path>
                <path d="M15.2921897,64 L23.7078103,64 C25.5257665,64 27,61.936137 27,59.3913494 L27,54.6086506 C27,52.0637756 25.5257665,50 23.7078103,50 L15.2921897,50 C13.4742335,50 12,52.063863 12,54.6086506 L12,59.3913494 C12,61.9362244 13.4742335,64 15.2921897,64 Z" id="Fill-5" fill="#747F91"></path>
                <path d="M34.2929141,64 L42.7070859,64 C44.5254421,64 46,61.936137 46,59.3913494 L46,54.6086506 C46,52.0637756 44.5254421,50 42.7070859,50 L34.2929141,50 C32.4745579,50 31,52.063863 31,54.6086506 L31,59.3913494 C31,61.9362244 32.4745579,64 34.2929141,64 Z" id="Fill-6" fill="#C5DAE1"></path>
                <path d="M17.3125044,15 L17.6909712,15 C19.5173503,15 21,13.6193598 21,11.9258274 L20.9965245,3.07417256 C20.9965245,1.37741957 19.5138748,0 17.6874956,0 L17.3090288,0 C15.4826497,0 14,1.38064015 14,3.07417256 L14,11.9225243 C14.0034755,13.6192773 15.4861163,14.9999174 17.3124955,14.9999174 L17.3125044,15 Z" id="Fill-7" fill="#C5DAE1"></path>
                <path d="M58.3125044,15 L58.6909712,15 C60.5173503,15 62,13.6193598 62,11.9258274 L61.9965245,3.07417256 C61.9965245,1.37741957 60.5138748,0 58.6874956,0 L58.3090288,0 C56.4826497,0 55,1.38064015 55,3.07417256 L55,11.9225243 C55.0034755,13.6192773 56.4861163,14.9999174 58.3124955,14.9999174 L58.3125044,15 Z" id="Fill-8" fill="#C5DAE1"></path>
            </g>
        </g>
    </g>
</svg>